<?xml version="1.0" encoding="UTF-8" standalone="no"?>
<!DOCTYPE svg PUBLIC "-//W3C//DTD SVG 1.1//EN" "http://www.w3.org/Graphics/SVG/1.1/DTD/svg11.dtd">
<svg width="100%" height="100%" viewBox="0 0 53 59" version="1.1" xmlns="http://www.w3.org/2000/svg" xmlns:xlink="http://www.w3.org/1999/xlink" xml:space="preserve" xmlns:serif="http://www.serif.com/" style="fill-rule:evenodd;clip-rule:evenodd;stroke-linejoin:round;stroke-miterlimit:2;">
    <g transform="matrix(1,0,0,1,-2416,-1229)">
        <g transform="matrix(1,0,0,1,-0.535958,1033.03)">
            <g transform="matrix(1.01206,0,0,1.01206,2101.76,139.64)">
                <g id="LO-MORRIS">
                    <g id="Layer-1" serif:id="Layer 1">
                        <g transform="matrix(1,0,0,1,327.002,89.2151)">
                            <path d="M0,-3.876C-0.187,-4.206 -1.681,-3.942 -1.979,-3.835C-2.678,-3.584 -3.412,-2.15 -3.088,-1.419C-2.872,-0.932 -1.97,-0.166 -1.448,-0.009C-0.924,0.148 0.717,0.33 1.026,-0.322C1.354,-1.013 1.539,-1.555 1.539,-2.342C1.539,-2.607 1.063,-2.977 1.063,-2.977C1.063,-2.977 1.096,-2.476 0.98,-2.268C0.74,-1.838 -0.056,-1.725 -0.458,-1.906C-0.838,-2.076 -0.66,-3.034 -0.467,-3.266C-0.394,-3.353 -0.037,-3.52 -0.037,-3.505L0,-3.876Z" style="fill:rgb(241,85,34);"/>
                        </g>
                        <g transform="matrix(1,0,0,1,336.816,98.0068)">
                            <path d="M0,-6.614C-0.063,-6.355 0.226,-4.887 0.285,-4.388C0.412,-3.314 0.345,-2.66 0.376,-1.579C0.388,-1.178 0.492,-0.528 0.359,-0.171C0.311,-0.038 -0.052,0 -0.161,-0.01C-0.509,-0.043 -0.452,-0.719 -0.461,-1.052C-0.472,-1.407 -0.33,-1.803 -0.289,-2.164C-0.205,-2.912 -0.176,-3.673 -0.198,-4.433C-0.213,-4.941 0,-6.614 0,-6.614" style="fill:rgb(241,85,34);"/>
                        </g>
                        <g transform="matrix(1,0,0,1,315.998,60.5565)">
                            <path d="M0,48.852C-0.274,49.589 -0.735,50.266 -1.036,50.997C-1.309,51.659 -1.558,52.12 -0.714,52.148C1.033,52.206 2.811,51.331 4.454,52.162C5.606,52.745 6.238,52.666 7.143,51.585C7.977,50.59 8.115,49.235 8.68,48.095C9.72,45.993 10.408,43.757 11.875,41.897C11.938,41.816 12.297,41.271 12.453,41.302C12.712,41.354 12.674,42.143 12.676,42.305C12.686,43.272 12.508,44.23 12.489,45.196C12.465,46.515 12.505,47.841 12.532,49.16C12.56,50.49 12.639,51.466 14.153,51.52C14.64,51.538 15.143,51.441 15.626,51.504C16.333,51.597 16.775,52.079 17.393,52.373C18.256,52.784 20.502,53.052 21.095,52.014C21.451,51.39 21.206,50.064 21.166,49.388C21.095,48.201 20.805,47.05 20.699,45.867C20.569,44.41 20.961,43.016 20.898,41.564C20.832,40.031 20.489,39.024 19.024,38.427C18.067,38.039 16.724,37.676 16.944,36.357C17.038,35.794 17.455,35.359 17.711,34.868C18.075,34.169 18.235,33.376 18.438,32.622C18.738,31.508 19.746,27.719 21.343,29.64C21.793,30.181 22.053,30.839 22.521,31.371C22.951,31.86 23.449,32.251 23.72,32.859C23.92,33.31 23.992,33.803 24.178,34.259C24.437,34.895 24.896,35.422 25.138,36.067C25.323,36.562 25.505,37.303 25.057,37.716C24.601,38.136 23.646,38.153 23.075,38.344C21.638,38.827 21.559,40.037 21.878,41.338C21.98,41.759 22.133,44.057 22.034,45.482C21.939,46.851 22.286,48.092 22.398,49.46C22.479,50.433 22.082,51.821 23.058,52.452C23.599,52.801 24.227,52.807 24.843,52.85C25.552,52.899 26.321,53.034 27.035,53.022C28.559,52.997 29.221,52.113 30.614,51.699C31.726,51.37 32.506,51.79 32.714,50.331C32.928,48.824 32.312,46.903 31.984,45.453C31.741,44.373 31.271,43.193 30.917,42.149C30.841,41.921 30.549,40.466 30.955,40.352C31.282,40.26 32.234,41.93 32.389,42.164C33.425,43.746 35.01,44.738 36.058,46.323C36.455,46.923 36.713,47.584 37.065,48.209C37.445,48.881 38.034,49.423 38.391,50.105C38.815,50.918 38.609,52.124 39.892,51.777C41.186,51.425 42.244,50.373 43.232,49.524C44.188,48.702 44.885,48.999 46.038,48.852C46.99,48.732 47.178,47.525 46.923,46.706C46.652,45.838 45.78,45.02 45.19,44.372C44.14,43.221 43.162,42.01 42.084,40.886C41.396,40.169 40.677,39.246 40.354,38.297C39.894,36.947 41.205,36.933 42.05,36.346C43.195,35.55 44.271,34.623 45.396,33.795C46.343,33.099 46.612,32.295 46.965,31.229C47.281,30.272 47.71,29.321 46.783,28.59C45.814,27.828 45.12,26.885 44.993,25.578C44.928,24.903 45.328,24.331 45.349,23.664C45.374,22.864 45.114,22.243 45.351,21.444C46.343,18.094 46.954,15.027 46.105,11.555C45.575,9.382 44.563,7.65 42.945,6.116C40.84,4.119 38.614,2.046 36.077,0.616C34.887,-0.055 33.579,-0.506 32.336,-1.07C31.038,-1.659 29.747,-2.269 28.413,-2.774C25.848,-3.746 22.797,-4.2 20.058,-4.016C17.837,-3.867 15.496,-3.235 13.331,-2.702C7.243,-1.205 1.037,1.5 -1.729,7.499C-2.684,9.568 -3.509,11.996 -4.045,14.22C-4.654,16.745 -3.72,18.871 -2.642,21.141C-2.087,22.31 -1.489,23.462 -0.77,24.54C-0.143,25.482 1.17,26.46 0.571,27.625C0.084,28.571 -0.45,29.41 -0.653,30.485C-0.847,31.506 -0.314,32.42 0.138,33.308C0.467,33.954 0.802,34.878 1.467,35.251C1.771,35.421 2.143,35.456 2.456,35.614C3.119,35.95 3.51,36.563 4.057,37.04C4.473,37.404 5.168,37.681 5.23,38.288C5.284,38.809 4.892,39.406 4.668,39.845C4.099,40.965 3.565,41.95 2.79,42.947C1.516,44.585 0.723,46.912 0,48.852M4.196,22.202C3.435,22.785 2.969,23.742 3.132,24.705C3.242,25.357 3.563,25.866 3.442,26.55C3.382,26.893 3.062,27.372 3.18,27.723C3.461,28.56 5.362,28.637 6.102,28.842C7.527,29.24 8.671,30.218 10.048,30.721C11.91,31.401 13.305,30.651 14.727,29.451C15.6,28.712 16.302,28.176 16.555,27.028C16.804,25.899 17.309,24.465 16.534,23.451C15.867,22.577 14.481,22.091 13.426,22.059C12.468,22.03 11.843,21.582 10.961,21.271C9.98,20.926 8.968,21.018 7.967,21.208C6.668,21.455 5.45,21.78 4.196,22.202M31.848,21.058C30.515,21.345 29.545,22.391 28.156,22.655C27.208,22.834 25.92,22.855 26.071,24.109C26.155,24.808 26.451,25.509 26.687,26.168C26.92,26.822 27.075,27.538 27.366,28.164C28.037,29.612 29.479,30.359 30.966,30.67C32.303,30.952 33.542,30.914 34.83,30.42C36.054,29.951 37.148,29.391 38.405,29.025C39.214,28.789 40.121,27.951 40.651,27.322C40.939,26.981 40.934,26.725 40.911,26.277C40.874,25.548 40.863,24.78 40.768,24.057C40.559,22.483 39.082,21.399 37.586,21.135C35.7,20.803 33.731,20.652 31.848,21.058M20.697,25.99C21.183,26.259 20.83,26.601 20.67,27.043C20.584,27.283 20.548,27.784 20.548,28.086C20.548,27.456 20.468,27.555 20.259,27.001C20.16,26.76 20.206,26.244 20.255,26.171C20.261,25.994 20.336,25.456 20.479,25.328C20.549,25.513 20.627,25.804 20.697,25.99M0.65,19.404C1.107,19.404 2.132,18.777 1.531,19.774C1.146,20.412 0.533,20.611 0.533,21.494C-0.819,19.784 -0.085,19.379 0.424,19.263C0.5,19.31 0.575,19.356 0.65,19.404M18.432,20.608C18.292,20.732 18.187,20.88 18.117,21.051C18.184,21.231 19.306,21.62 19.509,21.437C19.659,21.302 19.45,19.768 19.36,19.784C19.249,19.804 19.225,20.061 19.149,20.122C18.919,20.306 18.703,20.482 18.432,20.608M26.279,21.304C26.56,21.03 27.029,21.026 27.243,20.686C27.32,20.564 27.479,19.881 27.34,19.781C27.101,19.609 26.883,20.195 26.747,20.336C26.412,20.686 25.94,20.613 25.623,20.931C25.842,21.055 26.061,21.179 26.279,21.304M40.533,18.716C41.043,19.434 42.319,19.875 43.161,19.573C43.601,19.415 44.201,19.176 44.3,18.684C44.313,18.622 44.174,18.102 44.166,18.026C44.125,17.647 44.118,17.522 43.925,17.178C43.6,16.6 43.33,16.276 43.198,15.617C43.159,15.423 43.138,14.997 43.003,14.835C42.705,14.475 42.908,14.694 42.584,14.759C41.983,14.879 40.804,15.707 40.618,16.308C41.136,16.308 41.063,16.637 41.298,16.97C41.521,17.287 42.123,17.459 42.198,17.855C42.34,18.605 40.951,18.992 40.471,18.644C40.406,18.661 40.427,18.685 40.533,18.716M21.56,18.734C21.38,19.235 21.659,19.196 21.659,19.622C21.659,19.31 22.247,19.059 22.211,18.678C22.166,18.209 21.912,18.579 21.56,18.734M31.937,17.271C31.998,17.111 33.1,15.882 33.019,15.808C32.929,15.726 32.262,15.78 32.128,15.757C31.682,15.68 31.187,15.389 30.852,16.235C31.058,16.458 31.47,16.244 31.604,16.519C31.763,16.848 31.35,16.845 31.458,17.151C31.505,17.096 31.628,17.36 31.937,17.271M3.213,15.467C3.788,15.501 4.323,15.336 4.848,15.112C5.869,14.677 6.761,14.14 7.839,13.844C8.379,13.697 9.482,13.158 9.798,13.851C10.196,14.726 8.97,14.95 8.532,15.295C8.086,15.647 8.185,15.927 8.232,16.44C8.29,17.071 7.959,17.169 7.392,17.329C6.943,17.456 6.339,17.587 5.888,17.42C5.362,17.226 5.4,16.853 5.093,16.497C4.592,15.914 3.16,16.948 2.323,16.745C1.659,16.583 1.023,15.303 1.792,14.858C1.815,14.921 2.752,15.44 3.213,15.467M14.161,14.767C14.161,15.081 14.72,16.262 14.622,16.406C14.402,16.729 13.176,16.345 12.899,16.276C12.369,16.143 11.703,16.11 11.189,16.358C10.699,16.596 10.623,17.359 10.03,16.898C9.006,16.101 10.313,15.416 10.998,15.365C11.771,15.308 13.942,15.349 13.942,14.231C14.015,14.41 14.088,14.588 14.161,14.767M16.652,16.095C16.946,16.615 18.765,17.201 19.424,16.704C20.088,16.203 18.968,16.14 18.611,16.127C17.938,16.103 17.315,16.223 16.652,16.095M-2.915,15.07C-2.519,15.07 -2.329,15.612 -2.3,15.665C-2.027,16.164 -2.521,16.576 -2.979,16.639C-4.456,16.844 -3.587,15.066 -2.915,15.07M27.96,15.844C28.438,15.751 30.037,16.198 29.083,15.31C28.844,15.088 28.122,14.599 27.829,15.01C27.672,15.23 27.992,15.778 27.741,15.928C27.814,15.9 27.887,15.872 27.96,15.844M34.331,14.218C34.595,14.355 34.941,14.423 35.184,14.596C35.262,14.652 35.559,15.107 35.56,15.104C35.871,14.638 34.467,13.357 34.027,13.394C33.298,13.457 33.813,14.549 34.246,14.549C34.254,14.483 34.322,14.283 34.331,14.218M19.58,14.833C20.092,14.585 19.966,14.154 20.598,14.122C20.824,14.111 21.249,14.198 21.412,14.345C21.54,14.459 21.512,14.726 21.648,14.813C21.878,14.962 22.527,14.837 22.695,14.639C23.014,14.261 22.682,14.113 22.416,13.881C22.05,13.56 21.752,13.457 22.265,12.969C22.546,12.701 23.028,12.683 23.053,12.167C23.083,11.515 22.441,10.851 21.874,10.697C20.966,10.451 20.372,10.8 19.996,11.588C19.611,12.393 19.224,12.993 18.414,13.414C18.029,13.614 16.232,14.342 17.005,14.852C17.247,15.012 17.746,14.884 18.023,14.895C18.529,14.914 19.152,15.218 19.58,14.833M38.226,14.429C38.379,14.491 39.55,13.387 38.667,13.194C38.286,13.111 38.058,13.3 37.877,13.605C37.8,13.734 37.457,14.575 37.569,14.697L38.226,14.429ZM40.738,14.141C41.24,13.688 41.469,13.034 42.01,12.648C42.357,12.401 42.736,12.439 42.417,12.006C42.207,11.723 41.683,11.57 41.342,11.617C41.075,11.654 40.806,11.819 40.538,11.835C40.264,11.852 40.179,11.723 39.966,11.721C38.854,11.713 40.621,12.212 40.796,12.37C41.369,12.884 40.435,13.578 40.194,13.787C39.947,14.087 40.396,14.149 40.738,14.141M-1.14,12.403C-1.955,12.403 -2.418,13.834 -1.24,13.678C-0.134,13.532 -0.58,12.403 -1.14,12.403M32.104,12.144C31.872,11.621 31.106,11.896 30.726,12.068C30.278,12.27 29.806,12.512 30.217,12.958C30.74,13.525 31.427,13.386 32.003,13.063C31.865,13.063 32.247,12.465 32.104,12.144M6.311,11.347C6.311,11.032 5.794,11.036 5.581,11.036C5.107,11.037 4.97,11.184 4.671,11.507C4.616,11.566 4.654,11.711 4.591,11.768C4.492,11.859 4.268,11.869 4.145,11.926C3.843,12.069 3.426,12.247 3.606,12.677C3.732,12.978 4.229,13.114 4.497,12.936C4.767,12.758 4.664,12.302 4.939,12.117C5.263,11.898 5.632,12.174 5.972,12.107C6.244,12.054 6.651,11.782 6.123,11.543C6.182,11.482 6.242,11.397 6.311,11.347M6.923,6.383C6.667,6.456 6.575,6.675 6.42,6.893C6.068,7.387 6.099,8.058 6.118,8.637C6.162,10.022 6.78,10.614 8.057,11.026C8.774,11.258 10.987,11.174 11.317,11.913C11.423,12.15 11.19,12.665 11.379,12.852C11.688,13.158 11.922,12.72 12.05,12.493C12.209,12.209 12.213,11.927 12.465,11.696C12.669,11.511 13.266,11.431 13.346,11.126C13.489,10.583 11.575,10.659 11.173,10.539C10.15,10.235 8.555,9.972 8.148,8.868C7.986,8.43 7.982,7.945 7.94,7.486C7.877,6.805 7.682,6.477 7.406,5.859C7.453,6.02 7.052,6.346 6.923,6.383M38.296,12.055C38.648,11.583 38.482,11.477 37.994,11.442C37.637,11.417 36.543,11.536 36.496,12.05C36.448,12.578 36.115,12.783 36.813,12.783C37.016,12.761 37.988,12.464 38.296,12.055M33.707,11.256C34.123,11.256 34.941,10.514 35.03,10.109C35.147,9.577 34.454,9.702 33.998,9.747C33.444,9.801 32.92,10.032 32.902,10.685C32.892,11.075 32.746,10.926 33.085,11.113C33.245,11.202 33.733,11.225 33.707,11.256M22.394,10.122C22.394,9.864 22.149,9.69 22.214,9.418C22.255,9.247 22.531,9.162 22.592,9.005C22.767,8.56 22.303,8.451 22.369,7.994C22.491,7.15 24.167,6.952 24.81,6.921C26.264,6.851 25.779,8.137 26.45,9.019C26.788,9.463 28.043,9.884 27.585,10.664C27.111,11.474 25.367,10.703 24.746,10.476C23.618,10.062 24.841,10.054 25.122,9.405C25.304,8.984 24.991,8.559 24.546,8.565C24.12,8.571 23.95,8.912 23.798,9.248C23.446,10.025 23.297,10.247 22.394,10.122M42.323,9.757C42.271,10.178 43.893,10.972 43.932,10.261C43.973,9.516 41.981,8.693 41.463,9.067C41.75,9.297 42.036,9.527 42.323,9.757M-0.272,8.652C-0.233,8.317 0.566,6.845 -0.099,6.902C-0.521,6.939 -0.511,7.555 -0.705,7.776C-0.746,7.823 -1.293,8.226 -1.226,7.913C-1.349,8.451 -1.457,8.644 -0.887,8.74C-0.608,8.787 -0.347,8.623 -0.272,8.652M2.325,7.957C2.248,8.013 1.993,8.227 2.054,8.378C2.257,8.873 3.736,7.681 2.378,7.681C2.463,7.746 2.231,7.904 2.325,7.957M17.517,6.11C16.848,6.247 15.716,6.109 15.219,6.677C14.895,7.049 14.829,7.946 15.433,8.045C15.607,8.074 16.132,7.89 16.222,7.764C16.419,7.49 16.125,7.581 16.165,7.363C16.227,7.025 17.438,7.865 17.601,7.82C17.895,7.738 18.534,7.085 18.734,6.816C18.623,6.932 19.288,5.747 17.517,6.11M30.611,5.598C29.942,6.078 30.537,6.831 31.162,6.922C31.925,7.033 32.517,6.37 33.082,7.027C33.623,7.655 33.871,8.201 34.771,7.705C35.409,7.352 35.684,7.392 36.403,7.508C36.743,7.562 36.82,7.675 36.959,7.34C37.041,7.14 36.934,6.747 36.816,6.586C36.433,6.063 35.388,6.071 34.822,5.988C33.932,5.857 33.065,5.419 32.162,5.396C31.623,5.382 31.161,5.637 30.611,5.598M13.761,6.179C13.43,6.125 12.739,6.295 12.621,6.664C12.495,7.055 12.914,7.364 13.28,7.264C13.724,7.143 13.786,6.564 13.761,6.179M24.896,4.909C24.083,4.909 23.41,4.358 22.622,4.242C22.29,4.193 21.239,4.173 21.653,4.758C21.958,5.189 25.396,5.357 25.396,4.93C25.229,4.923 25.062,4.915 24.896,4.909M8.53,2.589C8.394,2.425 8.424,2.166 8.496,2.009C8.643,1.69 8.972,1.666 9.449,1.628C9.891,1.593 10.404,1.785 10.846,1.632C11.139,1.531 11.605,1.117 11.338,0.757C11.448,0.906 10.377,1.319 10.217,1.272C9.903,1.181 9.751,0.921 9.528,0.746C9.233,0.515 9.014,0.493 8.623,0.505C6.977,0.56 5.527,1.676 4.264,2.619C3.652,3.075 3.089,3.613 2.452,4.032C2.168,4.217 1.253,4.717 2.136,4.776C2.629,4.809 3.003,4.163 3.445,4.045C4.294,3.817 3.47,4.454 3.551,4.824C3.574,4.929 4.755,4.598 4.909,4.519C5.431,4.253 5.725,3.944 6.195,3.601C6.614,3.295 7.189,2.903 7.724,2.981C8.192,3.049 8.766,2.971 9.263,2.971C9.138,2.967 8.666,2.752 8.53,2.589M13.35,3.726C12.856,4.601 13.946,5.071 14.328,4.232C14.684,3.45 13.35,3.93 13.35,3.726M29.602,3.783C29.527,3.783 30.306,1.669 28.818,2.642C27.94,3.215 29.05,4.114 29.782,4.114C29.725,4.009 29.675,3.877 29.602,3.783M31.635,3.606C31.972,3.249 33.191,3.185 33.285,3.175C33.856,3.115 35.546,3.389 35.962,2.926C36.561,2.26 35.357,1.571 35.012,1.185C34.259,0.342 33.479,-0.215 32.393,-0.562C30.429,-1.188 27.898,-1.39 25.863,-1.128C24.819,-0.993 23.765,-1.053 22.723,-0.901C22.311,-0.841 21.913,-0.764 21.543,-0.568C21.468,-0.528 20.674,0.096 20.674,0.096C21.625,0.267 22.679,-0.12 23.624,-0.22C24.583,-0.322 25.601,-0.426 26.562,-0.331C27.463,-0.242 28.206,0.256 29.124,0.3C30.059,0.344 31.12,0.114 32.018,0.355C32.7,0.539 35.041,1.456 34.313,2.519C33.977,3.011 33.1,2.811 32.597,2.859C31.838,2.932 31.389,3.278 31.252,4.057C31.38,3.907 31.507,3.757 31.635,3.606M18.747,1.949C18.149,1.93 17.537,1.631 16.955,1.891C16.125,2.262 16.407,2.839 17.091,3.067C17.763,3.291 18.713,3.63 19.403,3.286C20.468,2.755 19.227,2.243 18.747,1.949" style="fill:rgb(241,85,34);"/>
                        </g>
                        <g transform="matrix(1,0,0,1,351.645,89.2019)">
                            <path d="M0,-3.999C0.396,-4.016 0.685,-3.784 0.773,-3.725C0.973,-3.591 1.151,-3.385 1.223,-3.17C1.437,-2.525 1.25,-1.73 1.035,-1.145C0.619,-0.008 -1.461,0.296 -2.314,-0.474C-3.057,-1.143 -3.346,-3.49 -1.938,-4.003C-1.136,-4.295 -0.683,-3.784 -0.766,-3.789C-1.268,-3.818 -1.539,-2.552 -0.768,-2.352C-0.302,-2.231 -0.009,-2.447 0.164,-2.757C0.349,-3.09 0.259,-3.637 -0.145,-3.754C-0.267,-3.789 -0.226,-3.989 0,-3.999" style="fill:rgb(241,85,34);"/>
                        </g>
                    </g>
                </g>
            </g>
        </g>
    </g>
</svg>
