<?xml version="1.0" encoding="UTF-8" standalone="no"?>
<!DOCTYPE svg PUBLIC "-//W3C//DTD SVG 1.1//EN" "http://www.w3.org/Graphics/SVG/1.1/DTD/svg11.dtd">
<svg width="100%" height="100%" viewBox="0 0 111 90" version="1.1" xmlns="http://www.w3.org/2000/svg" xmlns:xlink="http://www.w3.org/1999/xlink" xml:space="preserve" xmlns:serif="http://www.serif.com/" style="fill-rule:evenodd;clip-rule:evenodd;stroke-linejoin:round;stroke-miterlimit:2;">
    <g transform="matrix(1,0,0,1,-1812,-1169)">
        <g transform="matrix(1,0,0,1,-0.535958,1033.03)">
            <g id="whatsApp" transform="matrix(0.174244,0,0,0.174244,1919.57,145.794)">
                <path d="M0,407.831C-0.535,410.53 -1.456,412.882 -2.756,414.901C-4.062,416.923 -5.769,418.568 -7.878,419.82C-9.984,421.079 -12.612,421.709 -15.753,421.709C-18.807,421.709 -21.411,421.079 -23.564,419.82C-25.722,418.568 -27.446,416.923 -28.753,414.901C-30.048,412.882 -30.995,410.53 -31.581,407.831C-32.164,405.14 -32.453,402.396 -32.453,399.622C-32.453,396.739 -32.179,393.956 -31.643,391.268C-31.106,388.572 -30.183,386.195 -28.883,384.122C-27.584,382.062 -25.874,380.376 -23.764,379.077C-21.662,377.774 -19.034,377.118 -15.888,377.118C-12.836,377.118 -10.258,377.774 -8.151,379.077C-6.035,380.376 -4.312,382.077 -2.962,384.191C-1.611,386.303 -0.646,388.706 -0.065,391.398C0.525,394.096 0.81,396.835 0.81,399.622C0.81,402.396 0.538,405.14 0,407.831M18.046,385.943C16.788,381.411 14.859,377.437 12.253,374.02C9.649,370.611 6.379,367.871 2.428,365.806C-1.526,363.736 -6.244,362.708 -11.719,362.708C-16.023,362.708 -19.976,363.558 -23.564,365.268C-27.157,366.973 -30.119,369.713 -32.453,373.484L-32.717,373.484L-32.717,364.591L-50.9,364.591L-50.9,458.617L-31.781,458.617L-31.781,425.616L-31.511,425.616C-29.177,429.031 -26.185,431.61 -22.554,433.356C-18.921,435.106 -14.943,435.986 -10.633,435.986C-5.521,435.986 -1.055,434.994 2.765,433.021C6.576,431.047 9.769,428.394 12.323,425.071C14.887,421.747 16.788,417.938 18.046,413.625C19.309,409.314 19.933,404.822 19.933,400.154C19.933,395.215 19.309,390.479 18.046,385.943M-76.211,407.831C-76.755,410.53 -77.678,412.882 -78.975,414.901C-80.277,416.923 -81.984,418.568 -84.1,419.82C-86.203,421.079 -88.833,421.709 -91.973,421.709C-95.029,421.709 -97.622,421.079 -99.778,419.82C-101.935,418.568 -103.661,416.923 -104.965,414.901C-106.267,412.882 -107.208,410.53 -107.794,407.831C-108.379,405.14 -108.664,402.396 -108.664,399.622C-108.664,396.739 -108.403,393.956 -107.865,391.268C-107.319,388.572 -106.404,386.195 -105.098,384.122C-103.805,382.062 -102.094,380.376 -99.978,379.077C-97.872,377.774 -95.254,377.118 -92.106,377.118C-89.058,377.118 -86.467,377.774 -84.363,379.077C-82.254,380.376 -80.521,382.077 -79.178,384.191C-77.835,386.303 -76.87,388.706 -76.285,391.398C-75.697,394.096 -75.414,396.835 -75.414,399.622C-75.414,402.396 -75.675,405.14 -76.211,407.831M-63.962,374.02C-66.562,370.611 -69.843,367.871 -73.794,365.806C-77.746,363.736 -82.455,362.708 -87.928,362.708C-92.243,362.708 -96.189,363.558 -99.778,365.268C-103.378,366.973 -106.333,369.713 -108.664,373.484L-108.939,373.484L-108.939,364.591L-127.124,364.591L-127.124,458.617L-107.99,458.617L-107.99,425.616L-107.73,425.616C-105.399,429.031 -102.405,431.61 -98.767,433.356C-95.14,435.106 -91.165,435.986 -86.854,435.986C-81.734,435.986 -77.271,434.994 -73.457,433.021C-69.64,431.047 -66.453,428.394 -63.895,425.071C-61.333,421.747 -59.434,417.938 -58.167,413.625C-56.919,409.314 -56.284,404.822 -56.284,400.154C-56.284,395.215 -56.919,390.479 -58.167,385.943C-59.434,381.411 -61.359,377.437 -63.962,374.02M-189.733,397.056L-177.21,361.765L-176.942,361.765L-164.82,397.056L-189.733,397.056ZM-187.716,338.056L-224.071,434.231L-202.795,434.231L-195.258,412.815L-159.299,412.815L-152.034,434.231L-130.078,434.231L-166.03,338.056L-187.716,338.056ZM-225.691,403.724C-226.947,401.527 -228.609,399.683 -230.673,398.198C-232.736,396.721 -235.099,395.528 -237.741,394.627C-240.393,393.735 -243.108,392.977 -245.892,392.344C-248.583,391.713 -251.228,391.128 -253.832,390.589C-256.436,390.05 -258.752,389.444 -260.773,388.773C-262.791,388.096 -264.424,387.227 -265.682,386.141C-266.943,385.066 -267.565,383.677 -267.565,381.97C-267.565,380.531 -267.215,379.387 -266.492,378.532C-265.772,377.682 -264.896,377.031 -263.864,376.576C-262.83,376.134 -261.693,375.841 -260.433,375.702C-259.177,375.572 -258.006,375.505 -256.932,375.505C-253.518,375.505 -250.556,376.154 -248.037,377.457C-245.531,378.758 -244.135,381.251 -243.87,384.93L-225.691,384.93C-226.05,380.623 -227.148,377.057 -228.99,374.221C-230.827,371.394 -233.143,369.125 -235.923,367.42C-238.701,365.715 -241.869,364.505 -245.42,363.785C-248.966,363.067 -252.622,362.708 -256.386,362.708C-260.164,362.708 -263.847,363.049 -267.428,363.715C-271.027,364.39 -274.258,365.562 -277.127,367.22C-280.003,368.881 -282.311,371.147 -284.065,374.02C-285.818,376.894 -286.693,380.579 -286.693,385.066C-286.693,388.12 -286.06,390.705 -284.801,392.814C-283.556,394.928 -281.886,396.674 -279.829,398.068C-277.758,399.457 -275.4,400.586 -272.753,401.431C-270.106,402.293 -267.389,403.027 -264.611,403.66C-257.781,405.097 -252.46,406.529 -248.648,407.971C-244.832,409.406 -242.925,411.562 -242.925,414.435C-242.925,416.142 -243.326,417.549 -244.135,418.673C-244.945,419.802 -245.953,420.695 -247.163,421.371C-248.383,422.044 -249.731,422.54 -251.204,422.851C-252.687,423.168 -254.105,423.327 -255.45,423.327C-257.335,423.327 -259.153,423.098 -260.899,422.65C-262.653,422.203 -264.201,421.503 -265.547,420.559C-266.892,419.618 -267.999,418.408 -268.85,416.923C-269.696,415.443 -270.132,413.672 -270.132,411.605L-288.309,411.605C-288.125,416.274 -287.074,420.157 -285.138,423.255C-283.216,426.352 -280.749,428.845 -277.737,430.735C-274.73,432.617 -271.292,433.966 -267.428,434.776C-263.575,435.582 -259.623,435.986 -255.589,435.986C-251.638,435.986 -247.754,435.604 -243.935,434.847C-240.121,434.078 -236.731,432.754 -233.768,430.864C-230.799,428.982 -228.408,426.493 -226.562,423.39C-224.727,420.289 -223.808,416.452 -223.808,411.87C-223.808,408.635 -224.435,405.924 -225.691,403.724M-304.732,343.715L-323.858,343.715L-323.858,364.591L-335.434,364.591L-335.434,377.388L-323.858,377.388L-323.858,418.474C-323.858,421.979 -323.268,424.806 -322.105,426.958C-320.936,429.11 -319.345,430.782 -317.327,431.944C-315.306,433.113 -312.97,433.896 -310.321,434.3C-307.68,434.702 -304.863,434.906 -301.907,434.906C-300.014,434.906 -298.09,434.859 -296.111,434.776C-294.141,434.684 -292.347,434.511 -290.727,434.231L-290.727,419.412C-291.628,419.596 -292.569,419.735 -293.56,419.82C-294.544,419.911 -295.578,419.959 -296.655,419.959C-299.884,419.959 -302.041,419.412 -303.121,418.337C-304.193,417.262 -304.732,415.107 -304.732,411.87L-304.732,377.388L-290.727,377.388L-290.727,364.591L-304.732,364.591L-304.732,343.715ZM-359.54,407.287C-359.54,408.373 -359.649,409.81 -359.878,411.605C-360.1,413.403 -360.707,415.171 -361.693,416.923C-362.682,418.673 -364.213,420.186 -366.272,421.434C-368.336,422.699 -371.253,423.327 -375.028,423.327C-376.55,423.327 -378.035,423.189 -379.469,422.917C-380.908,422.65 -382.163,422.174 -383.24,421.503C-384.316,420.829 -385.171,419.911 -385.8,418.743C-386.425,417.576 -386.743,416.142 -386.743,414.435C-386.743,412.64 -386.425,411.152 -385.8,409.987C-385.171,408.825 -384.339,407.86 -383.305,407.091C-382.278,406.33 -381.063,405.726 -379.672,405.27C-378.281,404.822 -376.87,404.467 -375.429,404.194C-373.907,403.93 -372.376,403.698 -370.854,403.52C-369.322,403.348 -367.865,403.116 -366.477,402.849C-365.081,402.58 -363.784,402.239 -362.568,401.835C-361.356,401.431 -360.351,400.875 -359.54,400.154L-359.54,407.287ZM-340.419,418.743L-340.419,382.51C-340.419,378.285 -341.357,374.895 -343.249,372.339C-345.13,369.779 -347.555,367.782 -350.514,366.345C-353.481,364.909 -356.76,363.942 -360.351,363.449C-363.938,362.957 -367.487,362.708 -370.985,362.708C-374.843,362.708 -378.686,363.087 -382.496,363.856C-386.321,364.616 -389.747,365.898 -392.802,367.691C-395.854,369.486 -398.375,371.87 -400.339,374.832C-402.32,377.792 -403.441,381.521 -403.709,386.011L-384.59,386.011C-384.231,382.239 -382.968,379.544 -380.813,377.926C-378.659,376.312 -375.701,375.505 -371.926,375.505C-370.223,375.505 -368.632,375.62 -367.147,375.841C-365.669,376.068 -364.365,376.513 -363.241,377.186C-362.118,377.863 -361.221,378.801 -360.551,380.017C-359.878,381.23 -359.54,382.87 -359.54,384.93C-359.451,386.913 -360.037,388.407 -361.288,389.444C-362.549,390.479 -364.252,391.268 -366.407,391.8C-368.562,392.344 -371.031,392.75 -373.816,393.01C-376.6,393.284 -379.426,393.651 -382.295,394.096C-385.171,394.543 -388.023,395.148 -390.844,395.911C-393.673,396.674 -396.193,397.824 -398.39,399.342C-400.591,400.875 -402.385,402.915 -403.781,405.477C-405.17,408.037 -405.864,411.295 -405.864,415.242C-405.864,418.835 -405.259,421.93 -404.047,424.532C-402.836,427.144 -401.153,429.292 -398.995,430.999C-396.84,432.707 -394.328,433.966 -391.456,434.776C-388.587,435.582 -385.487,435.986 -382.163,435.986C-377.854,435.986 -373.633,435.355 -369.509,434.105C-365.377,432.837 -361.783,430.648 -358.731,427.497C-358.641,428.664 -358.484,429.814 -358.262,430.932C-358.038,432.054 -357.744,433.161 -357.385,434.231L-337.991,434.231C-338.889,432.802 -339.522,430.648 -339.877,427.766C-340.24,424.898 -340.419,421.892 -340.419,418.743M-419.197,370.584C-421.08,368.115 -423.662,366.185 -426.934,364.792C-430.215,363.406 -434.412,362.708 -439.526,362.708C-443.118,362.708 -446.798,363.63 -450.573,365.47C-454.341,367.31 -457.44,370.252 -459.862,374.295L-460.267,374.295L-460.267,338.056L-479.389,338.056L-479.389,434.231L-460.267,434.231L-460.267,397.727C-460.267,390.638 -459.101,385.54 -456.764,382.441C-454.432,379.344 -450.662,377.792 -445.453,377.792C-440.876,377.792 -437.689,379.208 -435.893,382.039C-434.097,384.867 -433.199,389.157 -433.199,394.902L-433.199,434.231L-414.076,434.231L-414.076,391.398C-414.076,387.092 -414.462,383.163 -415.221,379.607C-415.986,376.068 -417.309,373.057 -419.197,370.584M-520.191,404.332L-520.457,404.332L-536.885,338.056L-556.682,338.056L-573.382,403.52L-573.65,403.52L-588.867,338.056L-610.007,338.056L-584.557,434.231L-563.143,434.231L-547.122,368.766L-546.852,368.766L-530.559,434.231L-509.55,434.231L-483.695,338.056L-504.432,338.056L-520.191,404.332ZM-291.027,163.153C-282.005,167.049 -274.961,169.374 -269.469,171.118C-260.41,173.994 -252.166,173.59 -245.651,172.616C-238.385,171.53 -223.278,163.468 -220.126,154.634C-216.976,145.801 -216.976,138.23 -217.921,136.651C-218.866,135.075 -221.388,134.128 -225.169,132.237C-228.95,130.345 -247.542,121.194 -251.008,119.933C-254.474,118.672 -256.995,118.041 -259.516,121.827C-262.037,125.612 -269.284,134.128 -271.49,136.651C-273.695,139.177 -275.901,139.492 -279.682,137.6C-283.464,135.708 -295.649,131.712 -310.093,118.829C-321.334,108.804 -328.923,96.419 -331.129,92.636C-333.335,88.848 -331.364,86.801 -329.471,84.917C-327.77,83.223 -325.689,80.499 -323.799,78.293C-321.908,76.082 -321.277,74.505 -320.017,71.983C-318.757,69.46 -319.387,67.25 -320.332,65.358C-321.277,63.465 -328.84,44.852 -331.992,37.282C-335.061,29.907 -338.179,30.906 -340.5,30.789C-342.703,30.679 -345.227,30.657 -347.747,30.657C-350.268,30.657 -354.365,31.603 -357.831,35.387C-361.297,39.174 -371.066,48.321 -371.066,66.934C-371.066,85.547 -357.516,103.53 -355.625,106.052C-353.734,108.575 -328.961,146.773 -291.027,163.153M-294.116,-25.226C-260.518,-25.213 -228.935,-12.111 -205.186,11.664C-181.437,35.44 -168.365,67.046 -168.378,100.656C-168.406,170.017 -224.835,226.443 -294.166,226.443L-294.217,226.443C-316.789,226.436 -338.927,220.373 -358.24,208.912L-362.833,206.185L-410.442,218.675L-397.734,172.255L-400.725,167.497C-413.317,147.47 -419.967,124.322 -419.957,100.555C-419.929,31.199 -363.5,-25.226 -294.116,-25.226M-366.551,233.585C-344.446,245.64 -319.557,251.995 -294.227,252.004L-294.166,252.004C-210.757,252.004 -142.86,184.109 -142.826,100.667C-142.81,60.229 -158.537,22.204 -187.111,-6.402C-215.684,-35.009 -253.683,-50.769 -294.168,-50.786C-377.585,-50.786 -445.476,17.103 -445.51,100.544C-445.521,127.219 -438.551,153.255 -425.308,176.204L-446.778,254.629L-366.551,233.585Z" style="fill:white;fill-rule:nonzero;"/>
            </g>
        </g>
    </g>
</svg>
